<svg id="svg" version="1.1" xmlns="http://www.w3.org/2000/svg" xmlns:xlink="http://www.w3.org/1999/xlink" width="50"
     height="50" viewBox="0, 0, 400,400">
    <g id="svg">
        <path id="path0"
              d="M193.200 134.441 C 183.678 135.628,171.364 138.388,169.820 139.682 C 169.611 139.857,169.121 140.000,168.732 140.000 C 168.343 140.000,167.383 140.360,166.600 140.800 C 165.817 141.240,164.821 141.600,164.388 141.600 C 163.955 141.600,163.600 141.780,163.600 142.000 C 163.600 142.220,163.240 142.400,162.800 142.400 C 162.360 142.400,162.000 142.580,162.000 142.800 C 162.000 143.020,161.640 143.200,161.200 143.200 C 160.760 143.200,160.400 143.380,160.400 143.600 C 160.400 143.820,160.040 144.000,159.600 144.000 C 159.160 144.000,158.800 144.180,158.800 144.400 C 158.800 144.620,158.440 144.800,158.000 144.800 C 157.560 144.800,157.200 144.959,157.200 145.153 C 157.200 145.348,156.885 145.607,156.500 145.729 C 155.813 145.946,153.594 147.205,153.200 147.601 C 153.090 147.711,152.550 148.034,152.000 148.318 C 150.755 148.960,144.730 153.268,142.137 155.369 C 140.002 157.099,132.093 164.971,130.200 167.250 C 129.540 168.045,128.550 169.283,128.000 170.001 C 127.450 170.719,126.595 171.778,126.100 172.353 C 125.606 172.929,125.201 173.543,125.200 173.717 C 125.200 173.891,124.840 174.420,124.400 174.892 C 123.960 175.364,123.600 175.987,123.600 176.275 C 123.600 176.564,123.420 176.800,123.200 176.800 C 122.980 176.800,122.800 176.997,122.800 177.238 C 122.800 177.479,122.460 178.154,122.044 178.738 C 121.132 180.020,116.889 188.314,115.869 190.811 C 114.592 193.936,114.315 194.584,113.953 195.295 C 113.759 195.677,113.600 196.341,113.600 196.771 C 113.600 197.201,113.420 197.664,113.200 197.800 C 112.980 197.936,112.800 198.476,112.800 199.000 C 112.800 199.524,112.620 200.064,112.400 200.200 C 112.180 200.336,112.000 200.966,112.000 201.600 C 112.000 202.234,111.820 202.864,111.600 203.000 C 111.380 203.136,111.200 203.689,111.200 204.229 C 111.200 207.220,108.251 209.600,104.545 209.600 C 102.951 209.600,101.536 209.420,101.400 209.200 C 101.264 208.980,100.533 208.800,99.776 208.800 C 99.019 208.800,98.400 208.620,98.400 208.400 C 98.400 208.180,97.626 208.000,96.680 208.000 C 95.734 208.000,94.789 207.835,94.580 207.634 C 93.630 206.718,80.368 206.380,75.400 207.145 C 73.860 207.382,71.790 207.690,70.800 207.829 C 69.810 207.968,68.829 208.244,68.620 208.441 C 68.411 208.638,67.747 208.800,67.144 208.800 C 66.541 208.800,65.936 208.980,65.800 209.200 C 65.664 209.420,65.201 209.600,64.771 209.600 C 64.341 209.600,63.677 209.759,63.295 209.953 C 62.913 210.148,62.150 210.486,61.600 210.705 C 48.957 215.747,37.199 225.638,31.254 236.234 C 30.894 236.875,30.506 237.490,30.390 237.600 C 30.148 237.831,26.898 244.515,26.305 246.000 C 26.086 246.550,25.748 247.313,25.553 247.695 C 25.359 248.077,25.200 248.741,25.200 249.171 C 25.200 249.601,25.020 250.064,24.800 250.200 C 24.580 250.336,24.400 250.941,24.400 251.544 C 24.400 252.147,24.238 252.811,24.041 253.020 C 23.844 253.229,23.580 254.120,23.455 255.000 C 23.331 255.880,23.014 258.130,22.752 260.000 C 22.141 264.353,22.141 271.647,22.752 276.000 C 23.014 277.870,23.331 280.120,23.455 281.000 C 23.580 281.880,23.844 282.771,24.041 282.980 C 24.238 283.189,24.400 283.853,24.400 284.456 C 24.400 285.059,24.580 285.664,24.800 285.800 C 25.020 285.936,25.200 286.476,25.200 287.000 C 25.200 287.524,25.380 288.064,25.600 288.200 C 25.820 288.336,26.000 288.887,26.000 289.424 C 26.000 289.961,26.180 290.400,26.400 290.400 C 26.620 290.400,26.800 290.672,26.800 291.005 C 26.800 291.338,26.960 291.923,27.156 292.305 C 27.352 292.687,27.930 293.900,28.441 295.000 C 28.951 296.100,29.871 297.752,30.484 298.672 C 31.098 299.592,31.600 300.454,31.600 300.588 C 31.600 300.831,33.200 303.218,33.619 303.600 C 33.740 303.710,34.277 304.430,34.814 305.200 C 36.256 307.272,37.120 308.260,40.056 311.196 C 43.893 315.034,49.480 319.498,51.700 320.499 C 52.305 320.772,52.800 321.098,52.800 321.223 C 52.800 321.348,53.430 321.698,54.200 322.000 C 54.970 322.302,55.600 322.696,55.600 322.875 C 55.600 323.054,55.960 323.200,56.400 323.200 C 56.840 323.200,57.200 323.380,57.200 323.600 C 57.200 323.820,57.472 324.000,57.805 324.000 C 58.138 324.000,58.723 324.159,59.105 324.353 C 59.487 324.548,60.340 324.929,61.000 325.200 C 61.660 325.471,62.513 325.852,62.895 326.047 C 63.277 326.241,63.941 326.400,64.371 326.400 C 64.801 326.400,65.264 326.580,65.400 326.800 C 65.536 327.020,66.089 327.200,66.629 327.200 C 67.169 327.200,67.923 327.366,68.305 327.569 C 71.721 329.385,87.450 329.881,95.000 328.411 C 97.420 327.940,99.987 327.455,100.704 327.333 C 101.421 327.211,102.106 326.951,102.227 326.756 C 102.348 326.560,102.887 326.400,103.424 326.400 C 103.961 326.400,104.400 326.220,104.400 326.000 C 104.400 325.780,104.839 325.600,105.376 325.600 C 105.913 325.600,106.464 325.420,106.600 325.200 C 106.736 324.980,107.197 324.800,107.624 324.800 C 108.051 324.800,108.400 324.620,108.400 324.400 C 108.400 324.180,108.760 324.000,109.200 324.000 C 109.640 324.000,110.000 323.820,110.000 323.600 C 110.000 323.380,110.360 323.200,110.800 323.200 C 111.240 323.200,111.600 323.020,111.600 322.800 C 111.600 322.580,111.960 322.400,112.400 322.400 C 112.840 322.400,113.200 322.220,113.200 322.000 C 113.200 321.780,113.387 321.600,113.615 321.600 C 114.175 321.600,121.022 316.976,122.747 315.433 C 123.505 314.755,125.107 313.300,126.306 312.200 C 128.427 310.255,129.039 309.835,131.272 308.794 C 133.258 307.869,135.737 308.980,138.352 311.968 C 146.795 321.614,154.648 328.435,162.000 332.509 C 166.504 335.005,169.312 336.400,169.833 336.400 C 170.145 336.400,170.400 336.580,170.400 336.800 C 170.400 337.020,170.839 337.200,171.376 337.200 C 171.913 337.200,172.464 337.380,172.600 337.600 C 172.736 337.820,173.197 338.000,173.624 338.000 C 174.051 338.000,174.400 338.180,174.400 338.400 C 174.400 338.620,174.940 338.800,175.600 338.800 C 176.260 338.800,176.800 338.980,176.800 339.200 C 176.800 339.420,177.340 339.600,178.000 339.600 C 178.660 339.600,179.200 339.780,179.200 340.000 C 179.200 340.220,179.819 340.400,180.576 340.400 C 181.333 340.400,182.064 340.580,182.200 340.800 C 182.336 341.020,183.146 341.200,184.000 341.200 C 184.854 341.200,185.664 341.380,185.800 341.600 C 185.936 341.820,186.858 342.000,187.850 342.000 C 188.841 342.000,190.023 342.198,190.475 342.440 C 191.612 343.049,211.911 343.049,212.520 342.440 C 212.762 342.198,213.903 342.000,215.056 342.000 C 216.209 342.000,217.264 341.820,217.400 341.600 C 217.536 341.380,218.357 341.200,219.224 341.200 C 220.091 341.200,220.800 341.020,220.800 340.800 C 220.800 340.580,221.419 340.400,222.176 340.400 C 222.933 340.400,223.664 340.220,223.800 340.000 C 223.936 339.780,224.476 339.600,225.000 339.600 C 225.524 339.600,226.064 339.420,226.200 339.200 C 226.336 338.980,226.799 338.800,227.229 338.800 C 227.659 338.800,228.323 338.641,228.705 338.447 C 229.087 338.252,229.850 337.914,230.400 337.695 C 242.643 332.812,255.720 323.243,263.328 313.600 C 266.086 310.105,267.793 308.400,268.536 308.400 C 268.875 308.400,269.264 308.220,269.400 308.000 C 269.536 307.780,270.357 307.600,271.224 307.600 C 272.091 307.600,272.800 307.780,272.800 308.000 C 272.800 308.220,273.072 308.400,273.405 308.400 C 274.154 308.400,275.591 309.188,276.396 310.039 C 278.463 312.226,289.087 318.535,294.000 320.495 C 294.550 320.714,295.313 321.052,295.695 321.247 C 296.077 321.441,296.741 321.600,297.171 321.600 C 297.601 321.600,298.064 321.780,298.200 322.000 C 298.336 322.220,298.977 322.400,299.624 322.400 C 300.271 322.400,300.800 322.580,300.800 322.800 C 300.800 323.020,301.520 323.200,302.400 323.200 C 303.280 323.200,304.000 323.363,304.000 323.563 C 304.000 324.424,325.715 325.245,326.545 324.415 C 326.773 324.187,327.813 324.000,328.856 324.000 C 329.899 324.000,330.864 323.820,331.000 323.600 C 331.136 323.380,331.856 323.200,332.600 323.200 C 333.344 323.200,334.064 323.020,334.200 322.800 C 334.336 322.580,334.876 322.400,335.400 322.400 C 335.924 322.400,336.464 322.220,336.600 322.000 C 336.736 321.780,337.199 321.600,337.629 321.600 C 338.059 321.600,338.723 321.441,339.105 321.247 C 339.487 321.052,340.250 320.711,340.800 320.489 C 345.699 318.509,355.436 312.878,356.800 311.236 C 356.910 311.104,357.688 310.482,358.530 309.855 C 360.992 308.018,364.676 304.098,367.600 300.202 C 368.590 298.882,369.715 297.453,370.100 297.026 C 370.485 296.599,370.800 296.028,370.800 295.758 C 370.800 295.488,370.935 295.207,371.100 295.133 C 371.476 294.966,372.775 292.836,373.071 291.900 C 373.193 291.515,373.452 291.200,373.647 291.200 C 373.841 291.200,374.000 290.840,374.000 290.400 C 374.000 289.960,374.180 289.600,374.400 289.600 C 374.620 289.600,374.800 289.240,374.800 288.800 C 374.800 288.360,374.980 288.000,375.200 288.000 C 375.420 288.000,375.600 287.728,375.600 287.395 C 375.600 287.062,375.759 286.477,375.953 286.095 C 378.895 280.311,380.782 270.622,380.793 261.246 C 380.801 253.988,379.825 247.481,377.725 240.800 C 376.944 238.314,373.429 230.590,372.810 230.000 C 372.615 229.814,372.102 228.946,371.038 227.000 C 370.797 226.560,370.501 226.110,370.381 226.000 C 370.260 225.890,369.723 225.170,369.186 224.400 C 366.439 220.455,360.746 214.394,357.178 211.615 C 356.200 210.853,355.340 210.088,355.267 209.915 C 355.193 209.742,354.878 209.600,354.567 209.600 C 354.255 209.600,354.000 209.420,354.000 209.200 C 354.000 208.980,353.730 208.800,353.400 208.800 C 353.070 208.800,352.800 208.650,352.800 208.468 C 352.800 208.285,352.305 207.880,351.700 207.568 C 351.095 207.256,350.510 206.889,350.400 206.751 C 349.936 206.171,340.774 201.983,338.200 201.174 C 336.660 200.691,335.040 200.152,334.600 199.978 C 332.590 199.180,327.782 198.386,322.545 197.985 C 317.601 197.608,309.290 197.979,305.400 198.752 C 302.218 199.385,297.923 200.492,296.716 200.990 C 295.259 201.593,290.400 199.123,290.400 197.780 C 290.400 197.461,290.220 197.200,290.000 197.200 C 289.780 197.200,289.600 196.851,289.600 196.424 C 289.600 195.997,289.420 195.536,289.200 195.400 C 288.980 195.264,288.800 194.801,288.800 194.371 C 288.800 193.941,288.627 193.277,288.415 192.895 C 287.546 191.329,286.400 188.616,286.400 188.125 C 286.400 187.836,286.220 187.600,286.000 187.600 C 285.780 187.600,285.600 187.255,285.600 186.833 C 285.600 186.412,285.465 186.007,285.300 185.933 C 285.135 185.860,284.551 184.900,284.002 183.800 C 282.970 181.733,278.832 174.754,278.428 174.400 C 278.303 174.290,277.576 173.300,276.814 172.200 C 276.052 171.100,275.242 169.996,275.014 169.747 C 274.786 169.498,273.971 168.508,273.202 167.547 C 271.454 165.363,263.565 157.490,261.181 155.552 C 257.145 152.270,252.239 148.800,251.635 148.800 C 251.396 148.800,251.200 148.620,251.200 148.400 C 251.200 148.180,250.930 148.000,250.600 148.000 C 250.270 148.000,249.999 147.865,249.997 147.700 C 249.995 147.535,249.590 147.202,249.097 146.960 C 246.689 145.778,244.587 144.570,244.467 144.300 C 244.393 144.135,243.988 144.000,243.567 144.000 C 243.145 144.000,242.800 143.820,242.800 143.600 C 242.800 143.380,242.440 143.200,242.000 143.200 C 241.560 143.200,241.200 143.020,241.200 142.800 C 241.200 142.580,240.928 142.400,240.595 142.400 C 240.262 142.400,239.677 142.241,239.295 142.047 C 238.579 141.683,236.954 140.989,235.200 140.300 C 234.650 140.084,233.887 139.748,233.505 139.553 C 233.123 139.359,232.459 139.200,232.029 139.200 C 231.599 139.200,231.151 139.044,231.033 138.854 C 230.916 138.664,230.230 138.396,229.510 138.259 C 228.789 138.122,227.210 137.730,226.000 137.389 C 216.787 134.785,201.475 133.410,193.200 134.441 "
              stroke="none" fill="#b4b4b4" fill-rule="evenodd"></path>
        <path id="path1"
              d="M145.600 55.600 C 145.600 55.820,145.240 56.000,144.800 56.000 C 144.360 56.000,144.000 56.180,144.000 56.400 C 144.000 56.620,143.775 56.800,143.499 56.800 C 142.918 56.800,141.197 59.868,141.199 60.900 C 141.200 61.285,141.020 61.600,140.800 61.600 C 140.580 61.600,140.400 62.140,140.400 62.800 C 140.400 63.460,140.220 64.000,140.000 64.000 C 139.780 64.000,139.600 64.439,139.600 64.976 C 139.600 65.513,139.420 66.064,139.200 66.200 C 138.980 66.336,138.800 66.887,138.800 67.424 C 138.800 67.961,138.620 68.400,138.400 68.400 C 138.180 68.400,138.000 68.940,138.000 69.600 C 138.000 70.260,137.820 70.800,137.600 70.800 C 137.380 70.800,137.200 71.340,137.200 72.000 C 137.200 72.660,137.020 73.200,136.800 73.200 C 136.580 73.200,136.400 73.740,136.400 74.400 C 136.400 75.060,136.220 75.600,136.000 75.600 C 135.780 75.600,135.600 76.140,135.600 76.800 C 135.600 77.460,135.420 78.000,135.200 78.000 C 134.975 78.000,134.800 79.121,134.800 80.562 C 134.800 83.500,136.029 86.400,137.274 86.400 C 137.673 86.400,138.000 86.580,138.000 86.800 C 138.000 87.020,138.360 87.200,138.800 87.200 C 139.240 87.200,139.600 87.380,139.600 87.600 C 139.600 87.820,140.410 88.000,141.400 88.000 C 142.390 88.000,143.200 87.820,143.200 87.600 C 143.200 87.380,143.605 87.200,144.100 87.200 C 145.196 87.199,147.200 85.553,147.200 84.653 C 147.200 84.294,147.380 84.000,147.600 84.000 C 147.820 84.000,148.000 83.651,148.000 83.224 C 148.000 82.797,148.180 82.336,148.400 82.200 C 148.620 82.064,148.800 81.524,148.800 81.000 C 148.800 80.476,148.980 79.936,149.200 79.800 C 149.420 79.664,149.600 79.124,149.600 78.600 C 149.600 78.076,149.780 77.536,150.000 77.400 C 150.220 77.264,150.400 76.713,150.400 76.176 C 150.400 75.639,150.580 75.200,150.800 75.200 C 151.020 75.200,151.200 74.660,151.200 74.000 C 151.200 73.340,151.380 72.800,151.600 72.800 C 151.820 72.800,152.000 72.260,152.000 71.600 C 152.000 70.940,152.180 70.400,152.400 70.400 C 152.620 70.400,152.800 69.961,152.800 69.424 C 152.800 68.887,152.980 68.336,153.200 68.200 C 153.420 68.064,153.600 67.524,153.600 67.000 C 153.600 66.476,153.780 65.936,154.000 65.800 C 154.220 65.664,154.400 64.027,154.400 62.163 C 154.400 58.631,152.954 56.000,151.013 56.000 C 150.676 56.000,150.400 55.820,150.400 55.600 C 150.400 55.378,149.333 55.200,148.000 55.200 C 146.667 55.200,145.600 55.378,145.600 55.600 M77.817 56.524 C 75.874 57.706,74.800 59.767,74.800 62.316 C 74.800 63.877,75.817 67.482,76.453 68.180 C 76.644 68.389,76.800 68.803,76.800 69.099 C 76.800 69.396,77.160 70.384,77.600 71.294 C 78.040 72.205,78.400 73.276,78.400 73.675 C 78.400 74.074,78.580 74.400,78.800 74.400 C 79.020 74.400,79.200 74.760,79.200 75.200 C 79.200 75.640,79.380 76.000,79.600 76.000 C 79.820 76.000,80.000 76.540,80.000 77.200 C 80.000 77.860,80.180 78.400,80.400 78.400 C 80.620 78.400,80.800 78.749,80.800 79.176 C 80.800 79.603,80.980 80.064,81.200 80.200 C 81.420 80.336,81.600 80.887,81.600 81.424 C 81.600 81.961,81.780 82.400,82.000 82.400 C 82.220 82.400,82.400 82.760,82.400 83.200 C 82.400 83.640,82.580 84.000,82.800 84.000 C 83.020 84.000,83.200 84.294,83.200 84.653 C 83.200 85.553,85.204 87.199,86.300 87.200 C 86.795 87.200,87.200 87.380,87.200 87.600 C 87.200 87.820,87.909 88.000,88.776 88.000 C 89.643 88.000,90.464 87.820,90.600 87.600 C 90.736 87.380,91.197 87.200,91.624 87.200 C 92.051 87.200,92.400 87.041,92.400 86.847 C 92.400 86.652,92.735 86.406,93.143 86.299 C 93.552 86.192,94.136 85.541,94.441 84.852 C 94.746 84.164,95.131 83.600,95.298 83.600 C 95.464 83.600,95.600 82.430,95.600 81.000 C 95.600 79.533,95.426 78.400,95.200 78.400 C 94.980 78.400,94.800 77.961,94.800 77.424 C 94.800 76.887,94.620 76.336,94.400 76.200 C 94.180 76.064,94.000 75.513,94.000 74.976 C 94.000 74.439,93.820 74.000,93.600 74.000 C 93.380 74.000,93.200 73.640,93.200 73.200 C 93.200 72.760,93.020 72.400,92.800 72.400 C 92.580 72.400,92.400 71.860,92.400 71.200 C 92.400 70.540,92.263 70.000,92.095 70.000 C 91.927 70.000,91.454 68.826,91.043 67.391 C 90.632 65.957,90.139 64.686,89.948 64.568 C 89.757 64.450,89.600 64.009,89.600 63.589 C 89.600 63.168,89.240 62.183,88.800 61.400 C 88.360 60.617,88.000 59.756,88.000 59.488 C 87.999 58.722,86.178 56.800,85.453 56.800 C 85.094 56.800,84.800 56.620,84.800 56.400 C 84.800 55.833,78.776 55.940,77.817 56.524 M106.800 90.000 C 106.800 90.222,105.733 90.400,104.400 90.400 C 103.080 90.400,102.000 90.563,102.000 90.761 C 102.000 90.960,101.145 91.211,100.100 91.318 C 97.875 91.547,94.373 92.364,93.800 92.788 C 93.580 92.951,92.545 93.329,91.500 93.629 C 90.455 93.929,89.600 94.315,89.600 94.487 C 89.600 94.659,89.240 94.800,88.800 94.800 C 88.360 94.800,88.000 94.980,88.000 95.200 C 88.000 95.420,87.640 95.600,87.200 95.600 C 86.760 95.600,86.400 95.780,86.400 96.000 C 86.400 96.220,86.040 96.400,85.600 96.400 C 85.160 96.400,84.800 96.580,84.800 96.800 C 84.800 97.020,84.440 97.200,84.000 97.200 C 83.560 97.200,83.200 97.380,83.200 97.600 C 83.200 97.820,82.964 98.000,82.675 98.000 C 82.387 98.000,81.802 98.315,81.375 98.700 C 80.949 99.085,80.105 99.655,79.500 99.968 C 78.895 100.280,78.400 100.685,78.400 100.868 C 78.400 101.050,78.175 101.209,77.900 101.220 C 77.625 101.230,76.680 101.949,75.800 102.817 C 74.920 103.684,74.065 104.396,73.901 104.397 C 73.217 104.404,63.600 114.545,63.600 115.260 C 63.600 115.505,63.284 115.997,62.897 116.353 C 62.511 116.709,61.940 117.495,61.630 118.100 C 61.319 118.705,60.915 119.200,60.732 119.200 C 60.550 119.200,60.400 119.560,60.400 120.000 C 60.400 120.440,60.253 120.800,60.074 120.800 C 59.676 120.800,58.400 123.401,58.400 124.214 C 58.400 124.536,58.220 124.800,58.000 124.800 C 57.780 124.800,57.600 125.160,57.600 125.600 C 57.600 126.040,57.420 126.400,57.200 126.400 C 56.980 126.400,56.800 126.850,56.800 127.400 C 56.800 127.950,56.620 128.400,56.400 128.400 C 56.180 128.400,56.000 128.760,56.000 129.200 C 56.000 129.640,55.820 130.000,55.600 130.000 C 55.380 130.000,55.200 130.540,55.200 131.200 C 55.200 131.860,55.020 132.400,54.800 132.400 C 54.580 132.400,54.400 132.940,54.400 133.600 C 54.400 134.260,54.220 134.800,54.000 134.800 C 53.780 134.800,53.600 135.520,53.600 136.400 C 53.600 137.280,53.420 138.000,53.200 138.000 C 52.980 138.000,52.800 138.900,52.800 140.000 C 52.800 141.100,52.620 142.000,52.400 142.000 C 52.167 142.000,52.000 143.325,52.000 145.176 C 52.000 146.923,51.820 148.464,51.600 148.600 C 51.068 148.929,51.068 157.200,51.600 157.200 C 51.837 157.200,52.000 158.667,52.000 160.800 C 52.000 162.933,52.163 164.400,52.400 164.400 C 52.620 164.400,52.800 165.300,52.800 166.400 C 52.800 167.500,52.980 168.400,53.200 168.400 C 53.420 168.400,53.600 169.030,53.600 169.800 C 53.600 170.570,53.780 171.200,54.000 171.200 C 54.220 171.200,54.400 171.740,54.400 172.400 C 54.400 173.060,54.580 173.600,54.800 173.600 C 55.020 173.600,55.200 174.140,55.200 174.800 C 55.200 175.460,55.380 176.000,55.600 176.000 C 55.820 176.000,56.000 176.360,56.000 176.800 C 56.000 177.240,56.180 177.600,56.400 177.600 C 56.620 177.600,56.800 177.935,56.800 178.344 C 56.800 179.085,60.934 187.554,61.502 187.978 C 61.667 188.100,62.056 188.695,62.368 189.300 C 62.680 189.905,63.085 190.400,63.268 190.400 C 63.450 190.400,63.600 190.594,63.600 190.831 C 63.600 191.069,64.334 191.968,65.231 192.829 C 67.077 194.604,66.798 195.600,64.452 195.600 C 63.789 195.600,63.136 195.780,63.000 196.000 C 62.864 196.220,62.223 196.400,61.576 196.400 C 60.929 196.400,60.400 196.580,60.400 196.800 C 60.400 197.020,59.950 197.200,59.400 197.200 C 58.850 197.200,58.400 197.380,58.400 197.600 C 58.400 197.820,57.860 198.000,57.200 198.000 C 56.540 198.000,56.000 198.180,56.000 198.400 C 56.000 198.620,55.651 198.800,55.224 198.800 C 54.797 198.800,54.336 198.980,54.200 199.200 C 54.064 199.420,53.513 199.600,52.976 199.600 C 52.439 199.600,52.000 199.780,52.000 200.000 C 52.000 200.220,51.640 200.400,51.200 200.400 C 50.760 200.400,50.400 200.580,50.400 200.800 C 50.400 201.020,50.040 201.200,49.600 201.200 C 49.160 201.200,48.800 201.380,48.800 201.600 C 48.800 201.820,48.564 202.000,48.275 202.000 C 47.987 202.000,47.364 202.360,46.892 202.800 C 46.420 203.240,45.756 203.600,45.417 203.600 C 45.078 203.600,44.800 203.780,44.800 204.000 C 44.800 204.220,44.564 204.400,44.275 204.400 C 43.987 204.400,43.364 204.760,42.892 205.200 C 42.420 205.640,41.886 206.000,41.705 206.000 C 41.524 206.000,41.117 206.360,40.800 206.800 C 40.483 207.240,39.986 207.600,39.695 207.600 C 39.155 207.600,38.904 207.779,36.749 209.700 C 36.071 210.305,35.357 210.800,35.163 210.800 C 34.565 210.800,27.378 218.196,25.975 220.255 C 25.247 221.325,24.324 222.491,23.925 222.847 C 23.526 223.203,23.200 223.748,23.200 224.059 C 23.200 224.369,22.840 224.883,22.400 225.200 C 21.960 225.517,21.600 225.967,21.600 226.200 C 21.600 226.433,21.240 226.883,20.800 227.200 C 20.360 227.517,20.000 228.097,20.000 228.488 C 20.000 228.880,19.820 229.200,19.600 229.200 C 19.380 229.200,19.200 229.470,19.200 229.800 C 19.200 230.130,19.020 230.400,18.800 230.400 C 18.580 230.400,18.400 230.670,18.400 231.000 C 18.400 231.330,18.220 231.600,18.000 231.600 C 17.780 231.600,17.600 231.960,17.600 232.400 C 17.600 232.840,17.420 233.200,17.200 233.200 C 16.980 233.200,16.800 233.560,16.800 234.000 C 16.800 234.440,16.620 234.800,16.400 234.800 C 16.180 234.800,16.000 235.160,16.000 235.600 C 16.000 236.040,15.820 236.400,15.600 236.400 C 15.380 236.400,15.200 236.749,15.200 237.176 C 15.200 237.603,15.020 238.064,14.800 238.200 C 14.580 238.336,14.400 238.887,14.400 239.424 C 14.400 239.961,14.220 240.400,14.000 240.400 C 13.780 240.400,13.600 240.749,13.600 241.176 C 13.600 241.603,13.420 242.064,13.200 242.200 C 12.980 242.336,12.800 242.876,12.800 243.400 C 12.800 243.924,12.620 244.464,12.400 244.600 C 12.180 244.736,12.000 245.377,12.000 246.024 C 12.000 246.671,11.840 247.200,11.644 247.200 C 11.306 247.200,11.089 248.072,10.575 251.500 C 10.452 252.325,10.193 253.360,10.000 253.800 C 8.713 256.739,8.714 279.249,10.001 282.200 C 10.193 282.640,10.452 283.675,10.575 284.500 C 11.078 287.857,11.305 288.818,11.644 289.027 C 11.840 289.148,12.000 289.777,12.000 290.424 C 12.000 291.071,12.180 291.600,12.400 291.600 C 12.620 291.600,12.800 292.140,12.800 292.800 C 12.800 293.460,12.980 294.000,13.200 294.000 C 13.420 294.000,13.600 294.360,13.600 294.800 C 13.600 295.240,13.780 295.600,14.000 295.600 C 14.220 295.600,14.400 296.140,14.400 296.800 C 14.400 297.460,14.580 298.000,14.800 298.000 C 15.020 298.000,15.200 298.360,15.200 298.800 C 15.200 299.240,15.380 299.600,15.600 299.600 C 15.820 299.600,16.000 299.960,16.000 300.400 C 16.000 300.840,16.180 301.200,16.400 301.200 C 16.620 301.200,16.800 301.560,16.800 302.000 C 16.800 302.440,16.980 302.800,17.200 302.800 C 17.420 302.800,17.600 303.160,17.600 303.600 C 17.600 304.040,17.736 304.400,17.902 304.400 C 18.069 304.400,18.429 304.906,18.703 305.525 C 18.976 306.144,19.560 307.036,20.000 307.508 C 20.440 307.980,20.800 308.604,20.800 308.895 C 20.800 309.186,21.160 309.683,21.600 310.000 C 22.040 310.317,22.400 310.825,22.400 311.128 C 22.400 311.431,22.895 312.156,23.500 312.740 C 24.105 313.323,24.870 314.323,25.200 314.963 C 25.530 315.603,27.639 317.943,29.887 320.163 C 35.514 325.722,36.707 326.800,37.228 326.800 C 37.476 326.800,38.183 327.340,38.800 328.000 C 39.417 328.660,40.169 329.200,40.472 329.200 C 40.775 329.200,41.283 329.560,41.600 330.000 C 41.917 330.440,42.407 330.800,42.688 330.800 C 42.970 330.800,43.200 330.980,43.200 331.200 C 43.200 331.420,43.470 331.600,43.800 331.600 C 44.130 331.600,44.400 331.780,44.400 332.000 C 44.400 332.220,44.670 332.400,45.000 332.400 C 45.330 332.400,45.600 332.580,45.600 332.800 C 45.600 333.020,45.960 333.200,46.400 333.200 C 46.840 333.200,47.200 333.380,47.200 333.600 C 47.200 333.820,47.560 334.000,48.000 334.000 C 48.440 334.000,48.800 334.180,48.800 334.400 C 48.800 334.620,49.160 334.800,49.600 334.800 C 50.040 334.800,50.400 334.980,50.400 335.200 C 50.400 335.420,50.760 335.600,51.200 335.600 C 51.640 335.600,52.000 335.780,52.000 336.000 C 52.000 336.220,52.360 336.400,52.800 336.400 C 53.240 336.400,53.600 336.580,53.600 336.800 C 53.600 337.020,53.949 337.200,54.376 337.200 C 54.803 337.200,55.264 337.380,55.400 337.600 C 55.536 337.820,56.087 338.000,56.624 338.000 C 57.161 338.000,57.600 338.180,57.600 338.400 C 57.600 338.620,58.039 338.800,58.576 338.800 C 59.113 338.800,59.664 338.980,59.800 339.200 C 59.936 339.420,60.476 339.600,61.000 339.600 C 61.524 339.600,62.052 339.760,62.173 339.956 C 62.294 340.151,62.979 340.412,63.696 340.534 C 64.413 340.656,65.900 340.935,67.000 341.154 C 68.100 341.373,69.945 341.563,71.100 341.576 C 72.255 341.589,73.200 341.780,73.200 342.000 C 73.200 342.256,76.933 342.400,83.600 342.400 C 90.267 342.400,94.000 342.256,94.000 342.000 C 94.000 341.780,94.945 341.589,96.100 341.576 C 98.565 341.548,103.328 340.706,105.000 340.003 C 105.440 339.818,106.655 339.433,107.700 339.146 C 108.745 338.860,109.600 338.485,109.600 338.313 C 109.600 338.141,110.140 338.000,110.800 338.000 C 111.460 338.000,112.000 337.820,112.000 337.600 C 112.000 337.380,112.360 337.200,112.800 337.200 C 113.240 337.200,113.600 337.020,113.600 336.800 C 113.600 336.580,113.854 336.400,114.166 336.400 C 114.855 336.400,119.747 333.952,119.933 333.514 C 120.007 333.341,120.412 333.200,120.833 333.200 C 121.255 333.200,121.600 333.020,121.600 332.800 C 121.600 332.580,121.836 332.400,122.125 332.400 C 122.413 332.400,123.036 332.040,123.508 331.600 C 123.980 331.160,124.514 330.800,124.695 330.800 C 124.876 330.800,125.283 330.440,125.600 330.000 C 125.917 329.560,126.409 329.200,126.692 329.200 C 126.975 329.200,127.772 328.660,128.463 328.000 C 129.154 327.340,129.896 326.800,130.112 326.800 C 130.329 326.800,130.830 326.426,131.226 325.970 C 131.941 325.145,131.984 325.177,137.313 330.470 C 142.400 335.523,145.606 338.403,146.543 338.761 C 146.774 338.849,147.321 339.254,147.757 339.661 C 148.194 340.067,148.765 340.400,149.026 340.400 C 149.288 340.400,149.726 340.670,150.000 341.000 C 150.274 341.330,150.796 341.600,151.161 341.600 C 151.525 341.600,152.083 341.960,152.400 342.400 C 152.717 342.840,153.297 343.200,153.688 343.200 C 154.080 343.200,154.400 343.380,154.400 343.600 C 154.400 343.820,154.720 344.000,155.112 344.000 C 155.503 344.000,156.083 344.360,156.400 344.800 C 156.717 345.240,157.297 345.600,157.688 345.600 C 158.080 345.600,158.400 345.780,158.400 346.000 C 158.400 346.220,158.760 346.400,159.200 346.400 C 159.640 346.400,160.001 346.535,160.003 346.700 C 160.007 347.059,161.944 348.000,162.680 348.000 C 162.966 348.000,163.200 348.180,163.200 348.400 C 163.200 348.620,163.650 348.800,164.200 348.800 C 164.750 348.800,165.200 348.980,165.200 349.200 C 165.200 349.420,165.560 349.600,166.000 349.600 C 166.440 349.600,166.800 349.780,166.800 350.000 C 166.800 350.220,167.340 350.400,168.000 350.400 C 168.660 350.400,169.200 350.580,169.200 350.800 C 169.200 351.020,169.639 351.200,170.176 351.200 C 170.713 351.200,171.264 351.380,171.400 351.600 C 171.536 351.820,172.177 352.000,172.824 352.000 C 173.471 352.000,174.000 352.180,174.000 352.400 C 174.000 352.620,174.540 352.800,175.200 352.800 C 175.860 352.800,176.400 352.980,176.400 353.200 C 176.400 353.420,177.019 353.600,177.776 353.600 C 178.533 353.600,179.264 353.780,179.400 354.000 C 179.536 354.220,180.447 354.400,181.424 354.400 C 182.401 354.400,183.200 354.563,183.200 354.763 C 183.200 354.963,184.235 355.236,185.500 355.371 C 186.765 355.506,189.510 355.803,191.600 356.032 C 197.497 356.677,207.248 356.912,207.739 356.421 C 207.971 356.189,209.643 356.000,211.456 356.000 C 213.269 356.000,214.864 355.820,215.000 355.600 C 215.136 355.380,216.216 355.200,217.400 355.200 C 218.584 355.200,219.664 355.020,219.800 354.800 C 219.936 354.580,220.746 354.400,221.600 354.400 C 222.454 354.400,223.252 354.240,223.373 354.044 C 223.580 353.708,224.073 353.586,227.700 352.968 C 228.525 352.827,229.200 352.552,229.200 352.356 C 229.200 352.160,229.740 352.000,230.400 352.000 C 231.060 352.000,231.600 351.820,231.600 351.600 C 231.600 351.380,232.039 351.200,232.576 351.200 C 233.113 351.200,233.664 351.020,233.800 350.800 C 233.936 350.580,234.397 350.400,234.824 350.400 C 235.251 350.400,235.600 350.220,235.600 350.000 C 235.600 349.780,236.039 349.600,236.576 349.600 C 237.113 349.600,237.664 349.420,237.800 349.200 C 237.936 348.980,238.397 348.800,238.824 348.800 C 239.251 348.800,239.601 348.665,239.601 348.500 C 239.602 348.335,240.592 347.750,241.800 347.200 C 243.008 346.650,243.998 346.065,243.999 345.900 C 243.999 345.735,244.360 345.600,244.800 345.600 C 245.240 345.600,245.600 345.420,245.600 345.200 C 245.600 344.980,245.960 344.800,246.400 344.800 C 246.840 344.800,247.200 344.620,247.200 344.400 C 247.200 344.180,247.560 344.000,248.000 344.000 C 248.440 344.000,248.800 343.820,248.800 343.600 C 248.800 343.380,249.036 343.200,249.325 343.200 C 249.613 343.200,250.236 342.840,250.708 342.400 C 251.180 341.960,251.745 341.600,251.963 341.600 C 252.478 341.600,255.735 339.402,256.391 338.611 C 256.670 338.275,257.074 338.000,257.288 338.000 C 257.503 338.000,258.183 337.460,258.800 336.800 C 259.417 336.140,260.111 335.600,260.344 335.600 C 260.577 335.600,263.311 333.065,266.420 329.966 C 272.373 324.033,272.887 323.744,274.543 325.401 C 274.873 325.730,275.336 326.000,275.571 326.000 C 275.807 326.000,276.000 326.180,276.000 326.400 C 276.000 326.620,276.270 326.800,276.600 326.800 C 276.930 326.800,277.200 326.980,277.200 327.200 C 277.200 327.420,277.470 327.600,277.800 327.600 C 278.130 327.600,278.400 327.780,278.400 328.000 C 278.400 328.220,278.760 328.400,279.200 328.400 C 279.640 328.400,280.000 328.580,280.000 328.800 C 280.000 329.020,280.360 329.200,280.800 329.200 C 281.240 329.200,281.600 329.380,281.600 329.600 C 281.600 329.820,281.960 330.000,282.400 330.000 C 282.840 330.000,283.200 330.180,283.200 330.400 C 283.200 330.620,283.560 330.800,284.000 330.800 C 284.440 330.800,284.800 330.980,284.800 331.200 C 284.800 331.420,285.160 331.600,285.600 331.600 C 286.040 331.600,286.400 331.747,286.400 331.928 C 286.400 332.108,287.300 332.500,288.400 332.800 C 289.500 333.100,290.400 333.492,290.400 333.672 C 290.400 333.853,290.940 334.000,291.600 334.000 C 292.260 334.000,292.800 334.180,292.800 334.400 C 292.800 334.620,293.239 334.800,293.776 334.800 C 294.313 334.800,294.864 334.980,295.000 335.200 C 295.136 335.420,295.867 335.600,296.624 335.600 C 297.381 335.600,298.000 335.780,298.000 336.000 C 298.000 336.220,298.720 336.400,299.600 336.400 C 300.480 336.400,301.200 336.580,301.200 336.800 C 301.200 337.022,302.267 337.200,303.600 337.200 C 304.933 337.200,306.000 337.378,306.000 337.600 C 306.000 337.843,307.792 338.000,310.576 338.000 C 313.196 338.000,315.258 338.171,315.400 338.400 C 315.713 338.907,318.514 338.925,319.020 338.424 C 319.229 338.217,321.470 337.957,324.000 337.846 C 330.045 337.582,333.200 337.210,333.200 336.763 C 333.200 336.563,333.909 336.400,334.776 336.400 C 335.643 336.400,336.464 336.220,336.600 336.000 C 336.736 335.780,337.366 335.600,338.000 335.600 C 338.634 335.600,339.264 335.420,339.400 335.200 C 339.536 334.980,340.087 334.800,340.624 334.800 C 341.161 334.800,341.600 334.620,341.600 334.400 C 341.600 334.180,342.140 334.000,342.800 334.000 C 343.460 334.000,344.000 333.820,344.000 333.600 C 344.000 333.380,344.540 333.200,345.200 333.200 C 345.860 333.200,346.400 333.020,346.400 332.800 C 346.400 332.580,346.760 332.400,347.200 332.400 C 347.640 332.400,348.000 332.220,348.000 332.000 C 348.000 331.780,348.272 331.600,348.605 331.600 C 349.251 331.600,349.886 331.329,351.800 330.236 C 352.460 329.859,353.315 329.451,353.700 329.329 C 354.085 329.207,354.400 328.948,354.400 328.753 C 354.400 328.559,354.760 328.400,355.200 328.400 C 355.640 328.400,356.000 328.220,356.000 328.000 C 356.000 327.780,356.242 327.600,356.538 327.600 C 356.834 327.600,357.402 327.240,357.800 326.800 C 358.198 326.360,358.766 326.000,359.062 326.000 C 359.358 326.000,359.600 325.820,359.600 325.600 C 359.600 325.380,359.883 325.200,360.229 325.200 C 360.574 325.200,361.108 324.975,361.415 324.700 C 362.715 323.534,363.187 323.200,363.535 323.200 C 363.738 323.200,364.645 322.480,365.552 321.600 C 366.459 320.720,367.349 320.000,367.530 320.000 C 368.257 320.000,376.000 311.914,376.000 311.155 C 376.000 310.925,376.720 310.046,377.600 309.200 C 378.480 308.354,379.200 307.469,379.200 307.231 C 379.200 306.994,379.350 306.800,379.532 306.800 C 379.715 306.800,380.119 306.305,380.430 305.700 C 380.740 305.095,381.311 304.309,381.697 303.953 C 382.084 303.597,382.400 303.095,382.400 302.836 C 382.400 302.578,382.760 301.980,383.200 301.508 C 383.640 301.036,384.000 300.413,384.000 300.125 C 384.000 299.836,384.180 299.600,384.400 299.600 C 384.620 299.600,384.800 299.240,384.800 298.800 C 384.800 298.360,384.980 298.000,385.200 298.000 C 385.420 298.000,385.600 297.640,385.600 297.200 C 385.600 296.760,385.780 296.400,386.000 296.400 C 386.220 296.400,386.400 296.040,386.400 295.600 C 386.400 295.160,386.580 294.800,386.800 294.800 C 387.020 294.800,387.200 294.440,387.200 294.000 C 387.200 293.560,387.380 293.200,387.600 293.200 C 387.820 293.200,388.000 292.840,388.000 292.400 C 388.000 291.960,388.180 291.600,388.400 291.600 C 388.620 291.600,388.800 291.186,388.800 290.680 C 388.800 290.174,388.959 289.589,389.153 289.380 C 389.778 288.709,391.223 284.126,391.471 282.030 C 391.603 280.914,391.866 280.000,392.056 280.000 C 392.245 280.000,392.400 279.100,392.400 278.000 C 392.400 276.900,392.580 276.000,392.800 276.000 C 393.020 276.000,393.200 275.021,393.200 273.824 C 393.200 272.627,393.380 271.536,393.600 271.400 C 394.146 271.063,394.146 251.200,393.600 251.200 C 393.378 251.200,393.200 250.141,393.200 248.824 C 393.200 247.517,393.020 246.336,392.800 246.200 C 392.580 246.064,392.400 245.254,392.400 244.400 C 392.400 243.546,392.220 242.736,392.000 242.600 C 391.780 242.464,391.600 241.844,391.600 241.222 C 391.600 240.129,390.635 236.426,390.030 235.200 C 389.868 234.870,389.485 233.745,389.180 232.700 C 388.875 231.655,388.485 230.800,388.313 230.800 C 388.141 230.800,388.000 230.440,388.000 230.000 C 388.000 229.560,387.820 229.200,387.600 229.200 C 387.380 229.200,387.200 228.935,387.200 228.611 C 387.200 228.287,386.742 227.252,386.182 226.311 C 385.623 225.370,385.062 224.285,384.936 223.900 C 384.810 223.515,384.548 223.200,384.353 223.200 C 384.159 223.200,384.000 222.840,384.000 222.400 C 384.000 221.960,383.820 221.600,383.600 221.600 C 383.380 221.600,383.200 221.364,383.200 221.075 C 383.200 220.787,382.840 220.164,382.400 219.692 C 381.960 219.220,381.600 218.644,381.600 218.413 C 381.600 218.182,381.060 217.428,380.400 216.737 C 379.740 216.046,379.200 215.310,379.200 215.101 C 379.200 214.892,378.660 214.217,378.000 213.600 C 377.340 212.983,376.800 212.282,376.800 212.042 C 376.800 211.478,366.512 201.200,365.948 201.200 C 365.713 201.200,365.017 200.660,364.400 200.000 C 363.783 199.340,363.031 198.800,362.728 198.800 C 362.425 198.800,361.917 198.440,361.600 198.000 C 361.283 197.560,360.743 197.200,360.400 197.200 C 360.057 197.200,359.517 196.840,359.200 196.400 C 358.883 195.960,358.471 195.600,358.284 195.600 C 358.097 195.600,357.159 195.060,356.200 194.400 C 355.241 193.740,354.352 193.200,354.226 193.200 C 354.100 193.200,353.063 192.750,351.923 192.200 C 350.783 191.650,349.614 191.200,349.325 191.200 C 349.036 191.200,348.800 191.020,348.800 190.800 C 348.800 190.580,348.361 190.400,347.824 190.400 C 347.287 190.400,346.736 190.220,346.600 190.000 C 346.464 189.780,346.003 189.600,345.576 189.600 C 345.149 189.600,344.800 189.420,344.800 189.200 C 344.800 188.980,344.260 188.800,343.600 188.800 C 342.940 188.800,342.400 188.620,342.400 188.400 C 342.400 188.180,341.961 188.000,341.424 188.000 C 340.887 188.000,340.336 187.820,340.200 187.600 C 340.064 187.380,339.423 187.200,338.776 187.200 C 338.129 187.200,337.600 187.020,337.600 186.800 C 337.600 186.580,336.790 186.400,335.800 186.400 C 334.810 186.400,334.000 186.220,334.000 186.000 C 334.000 185.780,333.100 185.600,332.000 185.600 C 330.900 185.600,330.000 185.420,330.000 185.200 C 330.000 184.965,328.600 184.800,326.600 184.800 C 324.600 184.800,323.200 184.635,323.200 184.400 C 323.200 183.861,311.733 183.861,311.400 184.400 C 311.264 184.620,309.734 184.800,308.000 184.800 C 306.266 184.800,304.736 184.980,304.600 185.200 C 304.079 186.042,299.600 185.684,299.600 184.800 C 299.600 184.360,299.420 184.000,299.200 184.000 C 298.980 184.000,298.800 183.640,298.800 183.200 C 298.800 182.760,298.620 182.400,298.400 182.400 C 298.180 182.400,298.000 182.040,298.000 181.600 C 298.000 181.160,297.820 180.800,297.600 180.800 C 297.380 180.800,297.200 180.566,297.200 180.280 C 297.200 179.544,296.259 177.607,295.900 177.603 C 295.735 177.601,295.600 177.240,295.600 176.800 C 295.600 176.360,295.420 176.000,295.200 176.000 C 294.980 176.000,294.800 175.730,294.800 175.400 C 294.800 175.070,294.620 174.800,294.400 174.800 C 294.180 174.800,294.000 174.440,294.000 174.000 C 294.000 173.560,293.820 173.200,293.600 173.200 C 293.380 173.200,293.200 172.880,293.200 172.488 C 293.200 172.097,292.840 171.517,292.400 171.200 C 291.960 170.883,291.600 170.331,291.600 169.973 C 291.600 169.615,291.245 168.913,290.812 168.414 C 290.378 167.914,289.916 167.166,289.785 166.752 C 289.654 166.339,289.390 166.000,289.200 166.000 C 289.010 166.000,288.738 165.634,288.596 165.187 C 288.454 164.740,287.902 163.938,287.369 163.405 C 286.836 162.872,286.400 162.330,286.400 162.201 C 286.400 162.071,285.745 161.257,284.944 160.391 C 284.143 159.525,283.219 158.434,282.891 157.965 C 281.010 155.281,268.621 143.566,266.471 142.439 C 265.882 142.130,265.109 141.545,264.753 141.139 C 264.397 140.732,263.852 140.400,263.541 140.400 C 263.231 140.400,262.717 140.040,262.400 139.600 C 262.083 139.160,261.543 138.800,261.200 138.800 C 260.857 138.800,260.317 138.440,260.000 138.000 C 259.683 137.560,259.186 137.200,258.895 137.200 C 258.604 137.200,257.980 136.840,257.508 136.400 C 257.036 135.960,256.144 135.376,255.525 135.103 C 254.906 134.829,254.400 134.469,254.400 134.302 C 254.400 134.136,254.040 134.000,253.600 134.000 C 253.160 134.000,252.800 133.820,252.800 133.600 C 252.800 133.380,252.455 133.200,252.033 133.200 C 251.612 133.200,251.207 133.065,251.133 132.900 C 250.941 132.468,247.628 130.800,246.962 130.800 C 246.653 130.800,246.400 130.620,246.400 130.400 C 246.400 130.180,246.040 130.000,245.600 130.000 C 245.160 130.000,244.800 129.820,244.800 129.600 C 244.800 129.380,244.440 129.200,244.000 129.200 C 243.560 129.200,243.200 129.020,243.200 128.800 C 243.200 128.580,242.838 128.400,242.395 128.400 C 241.952 128.400,241.277 128.241,240.895 128.047 C 237.715 126.429,232.526 124.800,230.554 124.800 C 229.809 124.800,229.200 124.620,229.200 124.400 C 229.200 124.180,228.480 124.000,227.600 124.000 C 226.720 124.000,226.000 123.820,226.000 123.600 C 226.000 123.380,225.280 123.200,224.400 123.200 C 223.520 123.200,222.800 123.020,222.800 122.800 C 222.800 122.580,221.810 122.400,220.600 122.400 C 219.390 122.400,218.400 122.220,218.400 122.000 C 218.400 121.767,217.067 121.600,215.200 121.600 C 213.333 121.600,212.000 121.433,212.000 121.200 C 212.000 120.944,208.400 120.800,202.000 120.800 C 195.600 120.800,192.000 120.944,192.000 121.200 C 192.000 121.435,190.608 121.600,188.624 121.600 C 186.767 121.600,185.136 121.780,185.000 122.000 C 184.864 122.220,183.863 122.400,182.776 122.400 C 181.689 122.400,180.800 122.580,180.800 122.800 C 180.800 123.020,180.001 123.200,179.024 123.200 C 178.047 123.200,177.136 123.380,177.000 123.600 C 176.864 123.820,176.133 124.000,175.376 124.000 C 174.619 124.000,174.000 124.180,174.000 124.400 C 174.000 124.994,172.827 124.884,172.171 124.229 C 171.857 123.914,171.600 123.374,171.600 123.029 C 171.600 122.683,171.420 122.400,171.200 122.400 C 170.980 122.400,170.800 122.040,170.800 121.600 C 170.800 121.160,170.620 120.800,170.400 120.800 C 170.180 120.800,170.000 120.480,170.000 120.088 C 170.000 119.697,169.640 119.117,169.200 118.800 C 168.760 118.483,168.400 117.943,168.400 117.600 C 168.400 117.257,168.040 116.717,167.600 116.400 C 167.160 116.083,166.800 115.615,166.800 115.360 C 166.800 115.105,166.080 114.155,165.200 113.248 C 164.320 112.341,163.600 111.507,163.600 111.394 C 163.600 111.101,156.861 104.400,156.566 104.400 C 156.431 104.400,155.817 103.860,155.200 103.200 C 154.583 102.540,153.926 102.000,153.740 101.999 C 153.553 101.999,152.770 101.459,152.000 100.800 C 151.230 100.141,150.375 99.601,150.100 99.601 C 149.825 99.600,149.600 99.420,149.600 99.200 C 149.600 98.980,149.364 98.800,149.075 98.800 C 148.787 98.800,148.164 98.440,147.692 98.000 C 147.220 97.560,146.556 97.200,146.217 97.200 C 145.878 97.200,145.600 97.020,145.600 96.800 C 145.600 96.580,145.240 96.400,144.800 96.400 C 144.360 96.400,144.000 96.220,144.000 96.000 C 144.000 95.780,143.640 95.600,143.200 95.600 C 142.760 95.600,142.400 95.420,142.400 95.200 C 142.400 94.980,142.040 94.800,141.600 94.800 C 141.160 94.800,140.800 94.620,140.800 94.400 C 140.800 94.180,140.468 94.000,140.061 94.000 C 139.655 94.000,138.740 93.709,138.028 93.354 C 136.422 92.553,131.097 91.200,129.549 91.200 C 128.917 91.200,128.400 91.020,128.400 90.800 C 128.400 90.578,127.333 90.400,126.000 90.400 C 124.667 90.400,123.600 90.222,123.600 90.000 C 123.600 89.746,120.533 89.600,115.200 89.600 C 109.867 89.600,106.800 89.746,106.800 90.000 M197.200 97.600 C 197.200 97.820,196.660 98.000,196.000 98.000 C 195.340 98.000,194.800 98.180,194.800 98.400 C 194.800 98.620,194.612 98.800,194.383 98.800 C 194.154 98.800,193.580 99.160,193.108 99.600 C 192.636 100.040,192.013 100.400,191.725 100.400 C 191.436 100.400,191.200 100.580,191.200 100.800 C 191.200 101.020,190.964 101.200,190.675 101.200 C 190.387 101.200,189.764 101.560,189.292 102.000 C 188.820 102.440,188.196 102.800,187.905 102.800 C 187.614 102.800,187.117 103.160,186.800 103.600 C 186.483 104.040,185.903 104.400,185.512 104.400 C 185.120 104.400,184.800 104.580,184.800 104.800 C 184.800 105.020,184.480 105.200,184.088 105.200 C 183.697 105.200,183.117 105.560,182.800 106.000 C 182.483 106.440,181.903 106.800,181.512 106.800 C 181.120 106.800,180.800 106.980,180.800 107.200 C 180.800 107.420,180.530 107.600,180.200 107.600 C 179.870 107.600,179.600 107.780,179.600 108.000 C 179.600 108.220,179.403 108.400,179.162 108.400 C 178.338 108.400,176.389 110.062,175.739 111.319 C 174.062 114.560,175.933 120.800,178.582 120.800 C 178.922 120.800,179.200 120.980,179.200 121.200 C 179.200 121.972,183.499 121.639,185.389 120.720 C 186.385 120.236,187.200 119.696,187.200 119.520 C 187.200 119.344,187.393 119.200,187.628 119.200 C 187.863 119.200,188.841 118.660,189.800 118.000 C 190.759 117.340,191.654 116.800,191.789 116.800 C 191.923 116.800,192.420 116.440,192.892 116.000 C 193.364 115.560,193.987 115.200,194.275 115.200 C 194.564 115.200,194.800 115.020,194.800 114.800 C 194.800 114.580,195.120 114.400,195.512 114.400 C 195.903 114.400,196.483 114.040,196.800 113.600 C 197.117 113.160,197.697 112.800,198.088 112.800 C 198.480 112.800,198.800 112.620,198.800 112.400 C 198.800 112.180,199.036 112.000,199.325 112.000 C 199.613 112.000,200.236 111.640,200.708 111.200 C 201.180 110.760,201.760 110.400,201.997 110.400 C 202.845 110.400,205.200 107.633,205.200 106.637 C 205.200 106.093,205.380 105.536,205.600 105.400 C 205.820 105.264,206.000 104.724,206.000 104.200 C 206.000 103.676,205.820 103.136,205.600 103.000 C 205.380 102.864,205.200 102.349,205.200 101.855 C 205.200 100.539,202.728 98.000,201.446 98.000 C 200.871 98.000,200.400 97.820,200.400 97.600 C 200.400 97.380,199.680 97.200,198.800 97.200 C 197.920 97.200,197.200 97.380,197.200 97.600 M29.800 98.400 C 29.664 98.620,29.113 98.800,28.576 98.800 C 28.039 98.800,27.600 98.980,27.600 99.200 C 27.600 99.420,27.327 99.600,26.994 99.600 C 25.697 99.600,24.803 102.005,24.801 105.500 C 24.801 107.315,24.968 108.800,25.173 108.800 C 25.378 108.800,25.657 109.149,25.792 109.575 C 25.927 110.001,26.569 110.585,27.219 110.873 C 27.869 111.160,28.400 111.531,28.400 111.698 C 28.400 111.864,28.760 112.000,29.200 112.000 C 29.640 112.000,30.000 112.180,30.000 112.400 C 30.000 112.620,30.345 112.800,30.767 112.800 C 31.188 112.800,31.593 112.935,31.667 113.100 C 31.834 113.476,33.964 114.775,34.900 115.071 C 35.285 115.193,35.600 115.452,35.600 115.647 C 35.600 115.841,35.960 116.000,36.400 116.000 C 36.840 116.000,37.200 116.180,37.200 116.400 C 37.200 116.620,37.560 116.800,38.000 116.800 C 38.440 116.800,38.800 116.980,38.800 117.200 C 38.800 117.420,39.160 117.600,39.600 117.600 C 40.040 117.600,40.400 117.780,40.400 118.000 C 40.400 118.220,40.593 118.400,40.828 118.400 C 41.063 118.400,42.041 118.940,43.000 119.600 C 43.959 120.260,45.016 120.800,45.348 120.800 C 45.681 120.800,46.064 120.980,46.200 121.200 C 46.336 121.420,47.517 121.600,48.824 121.600 C 50.141 121.600,51.200 121.422,51.200 121.200 C 51.200 120.980,51.491 120.800,51.846 120.800 C 56.560 120.800,56.246 109.469,51.505 108.521 C 50.897 108.399,50.400 108.142,50.400 107.950 C 50.400 107.758,50.164 107.600,49.875 107.600 C 49.587 107.600,48.964 107.240,48.492 106.800 C 48.020 106.360,47.356 106.000,47.017 106.000 C 46.678 106.000,46.400 105.820,46.400 105.600 C 46.400 105.380,46.040 105.200,45.600 105.200 C 45.160 105.200,44.800 105.020,44.800 104.800 C 44.800 104.580,44.440 104.400,44.000 104.400 C 43.560 104.400,43.200 104.220,43.200 104.000 C 43.200 103.780,42.840 103.600,42.400 103.600 C 41.960 103.600,41.600 103.420,41.600 103.200 C 41.600 102.980,41.330 102.800,41.000 102.800 C 40.670 102.800,40.400 102.620,40.400 102.400 C 40.400 102.180,40.130 102.000,39.800 102.000 C 39.470 102.000,39.200 101.854,39.200 101.675 C 39.200 101.496,38.570 101.102,37.800 100.800 C 37.030 100.498,36.400 100.104,36.400 99.925 C 36.400 99.746,36.040 99.600,35.600 99.600 C 35.160 99.600,34.800 99.420,34.800 99.200 C 34.800 98.980,34.260 98.800,33.600 98.800 C 32.940 98.800,32.400 98.620,32.400 98.400 C 32.400 98.180,31.871 98.000,31.224 98.000 C 30.577 98.000,29.936 98.180,29.800 98.400 M125.535 102.968 C 138.690 105.819,150.764 114.080,157.976 125.163 C 160.980 129.778,161.153 129.307,155.386 132.207 C 131.085 144.427,113.269 163.572,103.559 187.900 C 103.362 188.395,103.029 189.205,102.821 189.700 C 102.612 190.195,102.038 191.815,101.545 193.300 C 101.051 194.785,100.457 196.000,100.224 196.000 C 99.991 196.000,98.450 195.742,96.800 195.427 C 95.150 195.113,92.180 194.744,90.200 194.608 C 84.226 194.199,84.515 194.325,80.329 190.298 C 75.432 185.589,68.800 176.590,68.800 174.656 C 68.800 174.511,68.455 173.628,68.033 172.696 C 66.444 169.180,65.581 166.013,64.418 159.433 C 62.590 149.089,65.940 134.838,72.512 125.000 C 76.553 118.950,83.696 112.049,88.753 109.308 C 89.549 108.876,90.830 108.168,91.600 107.733 C 100.426 102.752,115.059 100.697,125.535 102.968 M213.400 134.038 C 238.446 137.549,259.164 149.166,275.039 168.600 C 280.735 175.574,286.507 185.722,289.599 194.200 C 291.641 199.799,293.997 200.873,300.400 199.121 C 315.808 194.906,331.703 196.464,345.883 203.579 C 389.471 225.451,394.289 285.381,354.738 313.715 C 351.637 315.936,343.319 320.460,340.200 321.621 C 331.441 324.883,321.102 326.409,313.100 325.622 C 308.305 325.151,304.036 324.503,302.400 324.000 C 301.850 323.831,300.590 323.471,299.600 323.200 C 291.993 321.118,282.410 316.126,276.709 311.278 C 271.652 306.978,269.298 307.465,264.079 313.892 C 255.468 324.497,243.540 333.336,231.600 337.960 C 229.730 338.684,227.840 339.419,227.400 339.593 C 226.960 339.766,225.790 340.130,224.800 340.401 C 223.810 340.671,222.550 341.035,222.000 341.208 C 212.856 344.092,196.974 344.726,186.983 342.606 C 181.438 341.429,176.397 340.027,173.400 338.827 C 172.960 338.651,172.150 338.325,171.600 338.102 C 159.398 333.162,147.806 324.560,139.468 314.259 C 134.828 308.526,132.254 308.000,127.932 311.900 C 120.352 318.742,114.858 322.427,107.800 325.406 C 106.920 325.778,105.840 326.234,105.400 326.421 C 81.732 336.452,50.673 327.307,34.010 305.400 C 30.743 301.105,27.626 295.649,26.011 291.400 C 25.844 290.960,25.521 290.150,25.294 289.600 C 19.937 276.633,20.432 257.349,26.476 243.611 C 36.615 220.565,58.647 206.014,83.400 206.014 C 90.417 206.014,94.450 206.576,101.720 208.565 C 106.734 209.937,109.315 208.553,110.615 203.795 C 111.773 199.556,111.927 199.020,112.335 197.800 C 112.556 197.140,113.117 195.610,113.581 194.400 C 114.045 193.190,114.631 191.660,114.882 191.000 C 120.567 176.056,134.411 159.175,149.133 149.236 C 153.337 146.397,162.837 141.200,163.822 141.200 C 163.925 141.200,164.772 140.845,165.704 140.412 C 177.801 134.788,198.767 131.986,213.400 134.038 M36.600 160.000 C 36.464 160.220,35.564 160.400,34.600 160.400 C 33.636 160.400,32.736 160.580,32.600 160.800 C 32.464 161.020,31.564 161.200,30.600 161.200 C 29.636 161.200,28.736 161.380,28.600 161.600 C 28.464 161.820,27.553 162.000,26.576 162.000 C 25.599 162.000,24.800 162.180,24.800 162.400 C 24.800 162.620,23.900 162.800,22.800 162.800 C 21.700 162.800,20.800 162.980,20.800 163.200 C 20.800 163.420,20.168 163.600,19.395 163.600 C 18.150 163.600,16.575 164.170,16.000 164.829 C 15.890 164.955,15.485 165.175,15.100 165.317 C 14.715 165.459,14.400 165.851,14.400 166.187 C 14.400 166.524,14.220 166.800,14.000 166.800 C 13.780 166.800,13.600 167.149,13.600 167.576 C 13.600 168.003,13.420 168.464,13.200 168.600 C 12.980 168.736,12.800 169.546,12.800 170.400 C 12.800 171.254,12.980 172.064,13.200 172.200 C 13.420 172.336,13.600 172.752,13.600 173.124 C 13.601 174.039,15.337 176.000,16.147 176.000 C 16.506 176.000,16.800 176.180,16.800 176.400 C 16.800 176.639,18.333 176.800,20.600 176.800 C 22.867 176.800,24.400 176.639,24.400 176.400 C 24.400 176.180,25.300 176.000,26.400 176.000 C 27.500 176.000,28.400 175.858,28.400 175.683 C 28.400 175.509,29.975 175.153,31.900 174.893 C 33.825 174.632,36.390 174.227,37.600 173.992 C 38.810 173.758,40.385 173.464,41.100 173.340 C 41.815 173.215,42.400 172.952,42.400 172.756 C 42.400 172.560,42.694 172.400,43.053 172.400 C 43.953 172.400,45.599 170.396,45.600 169.300 C 45.600 168.805,45.780 168.400,46.000 168.400 C 46.220 168.400,46.400 167.500,46.400 166.400 C 46.400 165.300,46.220 164.400,46.000 164.400 C 45.780 164.400,45.600 164.040,45.600 163.600 C 45.600 163.160,45.441 162.800,45.247 162.800 C 45.052 162.800,44.803 162.454,44.692 162.031 C 44.239 160.297,37.467 158.597,36.600 160.000 "
              stroke="none" fill="#050504" fill-rule="evenodd"></path>
        <path id="path2"
              d="M106.800 102.873 C 85.129 107.413,69.985 122.097,65.319 143.095 C 64.465 146.940,64.345 159.006,65.128 162.400 C 67.982 174.777,73.385 184.156,81.798 191.334 L 84.802 193.897 89.301 194.175 C 91.775 194.328,94.430 194.611,95.200 194.805 C 98.885 195.733,100.427 195.518,100.997 194.000 C 101.286 193.230,102.196 190.800,103.020 188.600 C 104.429 184.835,107.219 178.864,109.143 175.500 C 109.614 174.675,110.369 173.349,110.820 172.553 C 120.363 155.703,141.770 136.799,158.516 130.432 C 160.361 129.731,160.212 129.052,157.263 124.721 C 149.338 113.083,138.083 105.835,123.269 102.832 C 120.714 102.314,109.334 102.342,106.800 102.873 "
              stroke="none" fill="#fada04" fill-rule="evenodd"></path>
        <path id="path3"
              d="M199.100 133.896 C 200.475 133.974,202.725 133.974,204.100 133.896 C 205.475 133.818,204.350 133.754,201.600 133.754 C 198.850 133.754,197.725 133.818,199.100 133.896 M190.400 134.427 C 185.771 134.984,179.216 136.242,178.833 136.647 C 178.600 136.893,179.974 136.685,183.000 136.015 C 184.949 135.584,189.169 134.945,193.200 134.470 C 194.850 134.275,195.480 134.115,194.600 134.115 C 193.720 134.114,191.830 134.254,190.400 134.427 M208.800 134.410 C 210.610 134.743,215.077 134.926,214.767 134.654 C 214.675 134.574,212.890 134.412,210.800 134.294 C 208.195 134.146,207.566 134.182,208.800 134.410 M215.800 135.181 C 216.240 135.381,217.158 135.556,217.840 135.572 C 218.522 135.587,219.602 135.758,220.240 135.950 C 220.878 136.143,222.390 136.518,223.600 136.784 C 224.810 137.051,226.160 137.365,226.600 137.484 C 227.040 137.602,227.292 137.584,227.161 137.444 C 226.754 137.009,219.924 135.443,216.600 135.022 C 215.447 134.876,215.223 134.920,215.800 135.181 M176.400 137.218 C 175.962 137.515,176.124 137.552,177.000 137.356 C 178.471 137.027,178.790 136.798,177.767 136.806 C 177.345 136.809,176.730 136.995,176.400 137.218 M173.600 138.018 C 173.162 138.315,173.324 138.352,174.200 138.156 C 175.671 137.827,175.990 137.598,174.967 137.606 C 174.545 137.609,173.930 137.795,173.600 138.018 M228.200 138.000 C 229.396 138.514,230.395 138.514,229.600 138.000 C 229.270 137.787,228.640 137.622,228.200 137.634 L 227.400 137.656 228.200 138.000 M154.700 146.229 C 154.095 146.557,153.600 146.910,153.600 147.013 C 153.600 147.399,154.232 147.157,155.200 146.400 C 156.389 145.470,156.211 145.409,154.700 146.229 M248.000 146.364 C 248.550 146.814,249.180 147.183,249.400 147.185 C 249.828 147.188,249.105 146.634,247.800 145.960 C 247.269 145.685,247.336 145.821,248.000 146.364 M148.578 150.180 C 146.830 151.380,144.770 152.923,144.000 153.611 C 143.213 154.314,143.650 154.087,145.000 153.093 C 146.320 152.121,148.435 150.641,149.700 149.806 C 151.735 148.462,152.292 148.000,151.878 148.000 C 151.811 148.000,150.326 148.981,148.578 150.180 M252.400 148.900 C 252.400 149.005,253.164 149.611,254.098 150.246 C 256.341 151.770,259.862 154.458,261.583 155.960 C 262.344 156.623,263.051 157.082,263.154 156.979 C 263.363 156.771,263.514 156.897,258.336 152.956 C 254.350 149.922,252.400 148.589,252.400 148.900 M141.054 155.855 C 140.423 156.397,139.973 156.906,140.054 156.986 C 140.134 157.066,140.716 156.688,141.346 156.145 C 141.977 155.603,142.427 155.094,142.346 155.014 C 142.266 154.934,141.684 155.312,141.054 155.855 M134.227 162.451 C 131.444 165.339,129.263 167.796,129.378 167.912 C 129.494 168.027,129.982 167.622,130.463 167.010 C 131.525 165.660,132.066 165.081,136.391 160.664 C 138.256 158.759,139.670 157.200,139.534 157.200 C 139.397 157.200,137.009 159.563,134.227 162.451 M264.400 158.018 C 264.400 158.343,271.265 165.268,271.427 165.106 C 271.508 165.025,269.961 163.352,267.987 161.388 C 266.014 159.424,264.400 157.907,264.400 158.018 M272.401 166.600 C 272.951 167.260,273.445 167.875,273.500 167.967 C 273.555 168.058,273.688 168.045,273.796 167.938 C 273.904 167.830,273.409 167.215,272.697 166.571 L 271.403 165.400 272.401 166.600 M276.867 172.334 C 277.600 173.447,278.346 174.366,278.525 174.378 C 278.871 174.401,276.451 170.878,275.876 170.523 C 275.688 170.407,276.134 171.222,276.867 172.334 M278.936 175.100 C 279.036 175.265,279.998 176.840,281.074 178.600 C 282.149 180.360,283.473 182.742,284.015 183.893 C 284.557 185.044,285.147 185.989,285.326 185.993 C 285.506 185.997,284.902 184.615,283.983 182.922 C 282.068 179.391,279.218 174.800,278.941 174.800 C 278.837 174.800,278.835 174.935,278.936 175.100 M121.822 178.222 C 121.445 178.798,121.216 179.349,121.314 179.447 C 121.412 179.545,121.800 179.154,122.178 178.578 C 122.555 178.002,122.784 177.451,122.686 177.353 C 122.588 177.255,122.200 177.646,121.822 178.222 M120.642 180.332 C 120.018 181.341,117.463 186.308,117.167 187.086 C 116.446 188.982,117.159 187.868,119.141 184.000 C 120.802 180.760,121.633 178.728,120.642 180.332 M116.400 188.484 C 116.400 188.604,116.128 189.354,115.795 190.151 C 115.462 190.948,115.279 191.600,115.389 191.600 C 115.706 191.600,116.833 188.700,116.605 188.472 C 116.492 188.359,116.400 188.365,116.400 188.484 M311.200 197.568 C 309.990 197.699,312.780 197.807,317.400 197.808 C 322.198 197.809,324.771 197.697,323.400 197.548 C 320.496 197.232,314.214 197.242,311.200 197.568 M290.400 197.949 C 290.400 199.365,295.720 201.663,297.049 200.821 C 297.726 200.392,297.702 200.366,296.805 200.560 C 295.329 200.879,292.863 200.002,291.554 198.692 C 290.919 198.058,290.400 197.723,290.400 197.949 M305.200 198.400 L 303.800 198.695 305.200 198.741 C 305.970 198.767,306.870 198.613,307.200 198.400 C 307.927 197.930,307.433 197.930,305.200 198.400 M327.600 198.379 C 327.930 198.604,328.725 198.791,329.367 198.794 C 330.904 198.802,330.584 198.570,328.600 198.238 C 327.454 198.046,327.170 198.086,327.600 198.379 M301.600 199.200 L 300.600 199.520 301.600 199.554 C 302.150 199.573,302.870 199.413,303.200 199.200 C 303.964 198.706,303.142 198.706,301.600 199.200 M331.600 199.194 C 331.930 199.411,332.635 199.591,333.167 199.594 C 334.451 199.602,334.125 199.375,332.400 199.058 C 331.415 198.877,331.178 198.918,331.600 199.194 M298.800 200.000 C 297.976 200.264,297.941 200.326,298.600 200.354 C 299.040 200.373,299.670 200.213,300.000 200.000 C 300.701 199.547,300.214 199.547,298.800 200.000 M334.600 200.000 C 334.736 200.220,335.152 200.400,335.525 200.400 C 336.118 200.400,339.007 201.372,342.500 202.747 C 344.172 203.405,343.814 202.900,342.100 202.183 C 340.489 201.508,334.924 199.600,334.568 199.600 C 334.450 199.600,334.464 199.780,334.600 200.000 M344.033 203.349 C 344.445 203.717,346.800 204.800,346.800 204.621 C 346.800 204.390,344.582 203.200,344.153 203.200 C 343.996 203.200,343.942 203.267,344.033 203.349 M76.000 206.800 C 75.020 207.114,75.024 207.121,76.200 207.154 C 76.860 207.173,77.670 207.013,78.000 206.800 C 78.758 206.310,77.530 206.310,76.000 206.800 M89.200 206.779 C 89.530 207.004,90.325 207.191,90.967 207.194 C 92.504 207.202,92.184 206.970,90.200 206.638 C 89.054 206.446,88.770 206.486,89.200 206.779 M71.200 207.600 C 70.667 207.945,70.667 207.988,71.200 207.988 C 71.530 207.988,72.070 207.813,72.400 207.600 C 72.933 207.255,72.933 207.212,72.400 207.212 C 72.070 207.212,71.530 207.387,71.200 207.600 M94.600 207.600 C 94.736 207.820,95.242 207.987,95.724 207.972 C 96.569 207.945,96.571 207.931,95.800 207.600 C 94.699 207.127,94.308 207.127,94.600 207.600 M355.200 209.829 C 355.200 210.111,355.617 210.479,357.700 212.033 C 359.463 213.349,358.968 212.634,357.000 211.021 C 356.010 210.210,355.200 209.674,355.200 209.829 M56.265 212.647 C 55.640 212.986,55.206 213.339,55.300 213.433 C 55.487 213.620,58.000 212.446,58.000 212.171 C 58.000 211.862,57.418 212.022,56.265 212.647 M361.873 215.910 C 364.988 218.998,367.539 221.976,369.345 224.633 C 369.925 225.487,370.400 225.976,370.400 225.719 C 370.400 224.659,361.216 214.000,360.303 214.000 C 360.107 214.000,360.814 214.859,361.873 215.910 M50.174 216.257 C 46.929 218.430,42.800 221.560,42.800 221.847 C 42.800 221.957,43.835 221.254,45.100 220.285 C 46.365 219.317,48.705 217.660,50.300 216.603 C 52.877 214.897,53.502 214.400,53.074 214.400 C 53.005 214.400,51.700 215.236,50.174 216.257 M36.306 228.500 C 33.081 232.359,29.660 237.600,30.367 237.600 C 30.605 237.600,30.800 237.412,30.800 237.182 C 30.800 236.625,34.367 231.363,36.614 228.603 C 37.602 227.392,38.331 226.400,38.236 226.400 C 38.140 226.400,37.272 227.345,36.306 228.500 M370.809 226.700 C 370.814 226.865,371.185 227.450,371.633 228.000 L 372.448 229.000 371.814 227.700 C 371.211 226.465,370.789 226.045,370.809 226.700 M378.244 242.600 C 378.573 244.071,378.802 244.390,378.794 243.367 C 378.791 242.945,378.605 242.330,378.382 242.000 C 378.085 241.562,378.048 241.724,378.244 242.600 M378.846 244.800 C 378.865 245.130,379.024 245.850,379.200 246.400 L 379.520 247.400 379.554 246.400 C 379.573 245.850,379.413 245.130,379.200 244.800 C 378.855 244.267,378.816 244.267,378.846 244.800 M379.799 248.800 C 379.894 249.570,380.179 251.461,380.432 253.002 C 380.710 254.692,380.833 258.743,380.741 263.202 C 380.657 267.271,380.705 270.060,380.847 269.400 C 381.291 267.338,381.222 255.356,380.749 252.307 C 380.251 249.098,379.488 246.284,379.799 248.800 M23.000 256.000 C 22.850 256.473,22.817 256.950,22.927 257.060 C 23.037 257.170,23.250 256.873,23.400 256.400 C 23.550 255.927,23.583 255.450,23.473 255.340 C 23.363 255.230,23.150 255.527,23.000 256.000 M22.269 260.756 C 22.121 261.495,22.022 262.752,22.049 263.550 C 22.086 264.649,22.182 264.418,22.448 262.600 C 22.831 259.971,22.699 258.605,22.269 260.756 M380.059 271.800 C 380.020 272.460,379.896 273.450,379.783 274.000 L 379.577 275.000 380.008 274.014 C 380.244 273.472,380.368 272.482,380.283 271.814 L 380.128 270.600 380.059 271.800 M22.047 272.833 C 22.073 273.805,22.242 275.140,22.421 275.800 C 22.627 276.557,22.665 275.966,22.525 274.200 C 22.271 271.021,21.976 270.176,22.047 272.833 M379.254 275.867 C 379.225 276.344,379.096 277.064,378.970 277.467 C 378.752 278.161,378.764 278.162,379.196 277.488 C 379.447 277.097,379.575 276.377,379.481 275.888 C 379.309 275.001,379.309 275.001,379.254 275.867 M22.834 279.200 C 22.846 279.530,23.011 280.160,23.200 280.600 L 23.544 281.400 23.566 280.600 C 23.578 280.160,23.413 279.530,23.200 279.200 C 22.855 278.667,22.815 278.667,22.834 279.200 M372.214 293.435 C 371.841 294.004,371.627 294.561,371.739 294.672 C 371.850 294.783,372.229 294.318,372.581 293.637 C 373.359 292.133,373.144 292.015,372.214 293.435 M367.800 299.882 C 366.046 302.342,366.094 302.283,363.800 304.823 C 362.417 306.354,362.383 306.432,363.547 305.397 C 364.287 304.739,365.892 302.940,367.113 301.400 C 370.209 297.493,370.136 297.598,369.749 297.619 C 369.557 297.630,368.680 298.648,367.800 299.882 M30.586 299.500 C 30.935 300.215,31.306 300.800,31.410 300.800 C 31.808 300.800,31.552 300.163,30.767 299.200 L 29.952 298.200 30.586 299.500 M34.304 305.156 C 34.907 306.012,35.458 306.659,35.529 306.594 C 35.731 306.409,33.835 303.610,33.504 303.605 C 33.341 303.602,33.701 304.300,34.304 305.156 M269.456 307.910 C 269.351 308.080,270.059 308.215,271.031 308.210 C 272.003 308.204,272.798 308.065,272.799 307.900 C 272.800 307.503,269.702 307.512,269.456 307.910 M131.400 308.800 C 131.250 309.043,131.828 309.198,132.876 309.194 C 134.137 309.189,134.439 309.084,134.000 308.800 C 133.215 308.293,131.714 308.293,131.400 308.800 M40.530 312.216 C 43.654 315.193,47.130 318.012,49.400 319.409 C 51.051 320.424,50.261 319.700,47.404 317.579 C 44.539 315.452,42.974 314.099,40.142 311.300 C 38.974 310.145,37.878 309.207,37.709 309.216 C 37.539 309.225,38.808 310.575,40.530 312.216 M135.200 309.354 C 135.200 309.439,135.695 309.827,136.300 310.216 L 137.400 310.924 136.638 310.062 C 135.964 309.299,135.200 308.923,135.200 309.354 M275.802 310.002 C 276.202 310.444,276.611 310.722,276.712 310.621 C 276.928 310.405,275.788 309.200,275.367 309.200 C 275.207 309.200,275.403 309.561,275.802 310.002 M126.590 311.929 C 125.496 312.963,123.919 314.393,123.086 315.105 C 122.253 315.817,121.687 316.400,121.828 316.400 C 122.365 316.400,128.968 310.434,128.713 310.180 C 128.640 310.107,127.685 310.894,126.590 311.929 M357.429 310.629 C 357.005 310.938,356.736 311.269,356.830 311.363 C 356.924 311.457,357.348 311.281,357.771 310.971 C 358.195 310.662,358.464 310.331,358.370 310.237 C 358.276 310.143,357.852 310.319,357.429 310.629 M263.894 312.855 C 263.066 313.925,262.526 314.793,262.694 314.784 C 263.045 314.767,265.742 311.198,265.536 311.024 C 265.461 310.961,264.722 311.785,263.894 312.855 M277.367 311.146 C 278.072 312.288,289.812 319.521,290.250 319.084 C 290.345 318.989,289.112 318.237,287.511 317.412 C 285.910 316.588,282.907 314.734,280.837 313.293 C 278.768 311.852,277.206 310.886,277.367 311.146 M353.400 313.646 C 350.639 315.603,350.076 315.939,346.279 317.900 C 345.223 318.446,344.449 318.982,344.559 319.092 C 344.974 319.508,355.533 313.079,356.196 312.006 C 356.561 311.416,356.472 311.468,353.400 313.646 M139.693 314.000 C 139.968 314.440,140.331 314.800,140.500 314.800 C 140.669 314.800,140.582 314.440,140.307 314.000 C 140.032 313.560,139.669 313.200,139.500 313.200 C 139.331 313.200,139.418 313.560,139.693 314.000 M142.417 317.074 C 145.097 319.890,150.176 324.757,150.303 324.631 C 150.438 324.496,141.096 315.200,140.825 315.200 C 140.720 315.200,141.436 316.043,142.417 317.074 M257.485 319.860 C 254.892 322.414,252.830 324.564,252.903 324.636 C 253.040 324.774,258.791 319.246,261.178 316.681 C 263.878 313.780,262.128 315.288,257.485 319.860 M117.892 318.965 C 114.900 321.003,113.546 322.075,114.800 321.411 C 116.924 320.286,121.908 316.671,121.124 316.824 C 121.056 316.837,119.601 317.801,117.892 318.965 M302.800 323.600 C 303.576 324.101,304.000 324.101,304.000 323.600 C 304.000 323.380,303.595 323.203,303.100 323.206 C 302.372 323.211,302.315 323.286,302.800 323.600 M306.800 324.400 C 308.342 324.894,309.164 324.894,308.400 324.400 C 308.070 324.187,307.350 324.027,306.800 324.046 L 305.800 324.080 306.800 324.400 M326.590 324.416 C 326.421 324.689,326.723 324.738,327.466 324.560 C 328.999 324.192,329.144 324.000,327.890 324.000 C 327.317 324.000,326.732 324.187,326.590 324.416 M150.800 325.100 C 150.800 325.269,151.160 325.632,151.600 325.907 C 152.040 326.182,152.400 326.269,152.400 326.100 C 152.400 325.931,152.040 325.568,151.600 325.293 C 151.160 325.018,150.800 324.931,150.800 325.100 M250.791 325.943 C 247.844 328.364,241.633 332.327,237.888 334.177 C 235.736 335.239,234.057 336.190,234.156 336.289 C 234.758 336.891,247.651 329.148,251.200 326.053 C 252.974 324.506,252.647 324.418,250.791 325.943 M314.917 325.097 C 316.411 325.174,318.751 325.174,320.117 325.096 C 321.482 325.018,320.260 324.955,317.400 324.955 C 314.540 324.956,313.422 325.020,314.917 325.097 M99.200 327.600 C 98.667 327.945,98.667 327.988,99.200 327.988 C 99.530 327.988,100.070 327.813,100.400 327.600 C 100.933 327.255,100.933 327.212,100.400 327.212 C 100.070 327.212,99.530 327.387,99.200 327.600 M70.400 328.379 C 70.730 328.604,71.525 328.791,72.167 328.794 C 73.704 328.802,73.384 328.570,71.400 328.238 C 70.254 328.046,69.970 328.086,70.400 328.379 M95.400 328.400 C 94.311 328.677,94.293 328.707,95.200 328.725 C 95.750 328.735,96.560 328.589,97.000 328.400 C 97.986 327.976,97.066 327.976,95.400 328.400 M74.800 329.220 C 75.752 329.506,82.235 329.684,81.400 329.401 C 81.180 329.327,79.380 329.188,77.400 329.092 C 75.420 328.997,74.250 329.054,74.800 329.220 M88.800 329.200 L 85.800 329.456 88.800 329.488 C 90.450 329.506,92.250 329.376,92.800 329.200 L 93.800 328.880 92.800 328.912 C 92.250 328.930,90.450 329.059,88.800 329.200 M159.200 331.144 C 160.255 332.029,166.086 335.192,165.400 334.507 C 165.180 334.287,163.983 333.559,162.740 332.889 C 161.498 332.220,159.968 331.364,159.340 330.988 L 158.200 330.305 159.200 331.144 M184.600 341.600 C 185.701 342.073,186.092 342.073,185.800 341.600 C 185.664 341.380,185.158 341.213,184.676 341.228 C 183.831 341.255,183.829 341.269,184.600 341.600 M188.800 342.400 C 190.342 342.894,191.164 342.894,190.400 342.400 C 190.070 342.187,189.350 342.027,188.800 342.046 L 187.800 342.080 188.800 342.400 M212.600 342.400 C 212.305 342.878,213.089 342.878,214.200 342.400 C 214.914 342.093,214.885 342.053,213.924 342.028 C 213.332 342.013,212.736 342.180,212.600 342.400 M195.800 343.252 C 197.867 343.642,205.333 343.642,207.400 343.252 C 208.370 343.068,206.085 342.949,201.600 342.949 C 197.115 342.949,194.830 343.068,195.800 343.252 "
              stroke="none" fill="#9a9a9a" fill-rule="evenodd"></path>
        <path id="path4"
              d="M112.700 102.296 C 114.075 102.374,116.325 102.374,117.700 102.296 C 119.075 102.218,117.950 102.154,115.200 102.154 C 112.450 102.154,111.325 102.218,112.700 102.296 M105.800 102.800 C 104.722 103.074,104.702 103.106,105.600 103.113 C 106.150 103.117,107.050 102.976,107.600 102.800 C 108.944 102.369,107.492 102.369,105.800 102.800 M122.800 102.800 C 123.350 102.976,124.250 103.117,124.800 103.113 C 125.698 103.106,125.678 103.074,124.600 102.800 C 122.908 102.369,121.456 102.369,122.800 102.800 M102.200 103.600 L 101.400 103.944 102.200 103.966 C 102.640 103.978,103.270 103.813,103.600 103.600 C 104.395 103.086,103.396 103.086,102.200 103.600 M126.800 103.600 C 127.130 103.813,127.760 103.978,128.200 103.966 L 129.000 103.944 128.200 103.600 C 127.004 103.086,126.005 103.086,126.800 103.600 M92.207 107.414 C 91.112 107.970,90.032 108.612,89.807 108.841 C 89.583 109.069,90.525 108.683,91.900 107.982 C 93.275 107.281,94.400 106.639,94.400 106.554 C 94.400 106.312,94.315 106.345,92.207 107.414 M136.000 106.563 C 136.000 106.638,137.305 107.372,138.900 108.192 C 143.078 110.341,146.469 112.837,150.824 116.971 L 154.648 120.600 150.624 116.576 C 148.411 114.363,145.520 111.827,144.200 110.941 C 140.842 108.687,136.000 106.102,136.000 106.563 M86.775 110.522 C 80.381 114.998,73.878 122.030,70.611 128.000 C 69.851 129.389,71.211 127.620,73.225 124.600 C 76.040 120.378,81.606 114.674,85.869 111.642 C 87.758 110.299,89.144 109.210,88.951 109.222 C 88.758 109.234,87.779 109.819,86.775 110.522 M157.085 124.500 C 159.370 127.863,160.760 129.604,159.369 127.360 C 157.195 123.853,155.370 121.207,155.122 121.203 C 154.969 121.202,155.853 122.685,157.085 124.500 M156.853 131.053 C 156.113 131.376,155.601 131.734,155.716 131.849 C 155.831 131.964,156.616 131.693,157.462 131.247 C 159.235 130.311,158.841 130.186,156.853 131.053 M200.707 133.490 C 201.426 133.579,202.506 133.577,203.107 133.486 C 203.708 133.395,203.120 133.322,201.800 133.324 C 200.480 133.326,199.988 133.401,200.707 133.490 M190.000 134.000 C 187.992 134.423,191.230 134.433,194.600 134.015 L 197.000 133.718 194.200 133.711 C 192.660 133.708,190.770 133.838,190.000 134.000 M208.400 134.017 C 209.610 134.184,211.500 134.318,212.600 134.314 L 214.600 134.308 213.000 133.977 C 212.120 133.795,210.230 133.661,208.800 133.679 L 206.200 133.713 208.400 134.017 M184.800 134.800 C 183.895 135.090,183.933 135.120,185.200 135.120 C 185.970 135.120,187.050 134.976,187.600 134.800 C 188.505 134.510,188.467 134.480,187.200 134.480 C 186.430 134.480,185.350 134.624,184.800 134.800 M215.600 134.800 C 216.150 134.976,217.230 135.120,218.000 135.120 C 219.267 135.120,219.305 135.090,218.400 134.800 C 217.850 134.624,216.770 134.480,216.000 134.480 C 214.733 134.480,214.695 134.510,215.600 134.800 M147.900 135.829 C 146.405 136.640,146.496 136.978,148.000 136.200 C 148.660 135.859,149.200 135.494,149.200 135.390 C 149.200 135.132,149.157 135.147,147.900 135.829 M178.200 136.203 C 174.183 137.254,168.286 139.247,165.704 140.426 C 164.772 140.852,163.925 141.200,163.822 141.200 C 162.837 141.200,153.337 146.397,149.133 149.236 C 134.411 159.175,120.567 176.056,114.882 191.000 C 114.631 191.660,114.045 193.190,113.581 194.400 C 113.117 195.610,112.556 197.140,112.335 197.800 C 111.927 199.020,111.773 199.556,110.615 203.795 C 109.315 208.553,106.734 209.937,101.720 208.565 C 94.450 206.576,90.417 206.014,83.400 206.014 C 49.789 206.014,22.730 232.383,21.714 266.128 C 21.433 275.462,22.526 282.707,25.240 289.500 C 25.438 289.995,25.761 290.805,25.958 291.300 C 35.688 315.792,62.581 332.675,87.800 330.124 L 91.800 329.720 84.224 329.660 C 76.043 329.595,73.846 329.325,67.100 327.554 C 56.594 324.795,44.034 316.966,37.599 309.167 C 36.615 307.975,35.695 306.910,35.553 306.800 C 34.629 306.085,29.695 298.128,28.056 294.710 C 23.476 285.161,21.753 276.934,22.127 266.400 C 22.335 260.520,22.578 258.441,23.597 253.800 C 23.838 252.700,24.139 251.303,24.264 250.695 C 24.390 250.087,24.651 249.492,24.846 249.371 C 25.041 249.251,25.200 248.801,25.200 248.371 C 25.200 247.941,25.359 247.277,25.553 246.895 C 25.748 246.513,26.084 245.750,26.300 245.200 C 32.210 230.159,45.586 216.752,60.430 210.990 C 62.504 210.186,64.560 209.384,65.000 209.209 C 65.940 208.836,68.499 208.140,70.200 207.795 C 80.106 205.787,91.668 206.177,100.600 208.820 C 103.424 209.656,105.912 209.733,107.392 209.031 C 109.546 208.008,110.252 206.747,111.997 200.800 C 120.004 173.517,138.392 152.985,165.696 140.843 C 166.738 140.379,167.827 140.000,168.116 140.000 C 168.404 140.000,168.811 139.852,169.020 139.672 C 169.229 139.492,170.750 138.930,172.400 138.424 C 174.050 137.917,175.850 137.358,176.400 137.181 C 176.950 137.004,178.390 136.642,179.600 136.378 C 180.810 136.113,182.250 135.754,182.800 135.580 L 183.800 135.263 182.800 135.263 C 182.250 135.262,180.180 135.686,178.200 136.203 M220.400 135.580 C 220.950 135.754,222.390 136.117,223.600 136.386 C 224.810 136.654,226.340 137.034,227.000 137.228 C 229.312 137.911,233.408 139.256,234.300 139.626 C 234.795 139.832,235.605 140.162,236.100 140.359 C 259.863 149.844,279.550 169.445,288.370 192.400 C 291.533 200.632,293.020 201.555,300.012 199.620 C 302.315 198.983,303.894 198.448,303.520 198.431 C 303.145 198.414,301.795 198.698,300.520 199.061 C 294.003 200.920,291.775 199.913,289.545 194.100 C 278.597 165.560,255.541 144.649,226.139 136.591 C 221.696 135.373,217.306 134.600,220.400 135.580 M66.600 136.800 C 66.450 137.273,66.417 137.750,66.527 137.860 C 66.637 137.970,66.850 137.673,67.000 137.200 C 67.150 136.727,67.183 136.250,67.073 136.140 C 66.963 136.030,66.750 136.327,66.600 136.800 M143.396 138.658 C 139.411 141.307,135.058 144.598,134.396 145.462 C 134.085 145.868,134.364 145.740,135.015 145.178 C 136.764 143.670,140.214 141.155,143.500 138.991 C 146.035 137.323,146.702 136.800,146.296 136.800 C 146.238 136.800,144.933 137.636,143.396 138.658 M64.978 142.978 C 64.827 143.781,64.794 144.527,64.904 144.637 C 65.014 144.747,65.227 144.181,65.378 143.378 C 65.528 142.575,65.562 141.828,65.452 141.718 C 65.342 141.608,65.128 142.175,64.978 142.978 M64.257 147.500 C 63.946 149.381,64.009 157.401,64.347 158.977 C 64.486 159.625,64.600 156.970,64.600 153.077 C 64.600 145.268,64.607 145.381,64.257 147.500 M132.278 147.013 C 131.660 147.556,131.314 148.000,131.508 148.000 C 131.702 148.000,132.283 147.550,132.800 147.000 C 133.995 145.728,133.731 145.734,132.278 147.013 M126.413 152.587 C 124.118 154.890,122.321 156.825,122.420 156.887 C 122.519 156.950,124.481 155.066,126.780 152.700 C 129.079 150.335,130.875 148.400,130.773 148.400 C 130.670 148.400,128.708 150.284,126.413 152.587 M119.942 159.700 C 117.537 162.578,117.069 163.200,117.306 163.200 C 117.418 163.200,118.528 161.940,119.772 160.400 C 121.016 158.860,121.959 157.600,121.866 157.600 C 121.773 157.600,120.907 158.545,119.942 159.700 M64.868 162.200 C 64.862 162.640,65.011 163.360,65.200 163.800 C 65.638 164.819,65.638 163.768,65.200 162.400 C 64.943 161.596,64.877 161.557,64.868 162.200 M116.318 164.300 C 115.344 165.425,110.721 172.455,110.867 172.590 C 110.940 172.658,112.377 170.663,114.060 168.157 C 115.743 165.650,117.076 163.600,117.022 163.600 C 116.968 163.600,116.651 163.915,116.318 164.300 M65.612 166.000 C 65.612 166.330,65.787 166.870,66.000 167.200 C 66.345 167.733,66.388 167.733,66.388 167.200 C 66.388 166.870,66.213 166.330,66.000 166.000 C 65.655 165.467,65.612 165.467,65.612 166.000 M109.814 174.235 C 109.441 174.804,109.205 175.338,109.289 175.422 C 109.373 175.507,109.758 175.041,110.144 174.388 C 111.006 172.928,110.748 172.809,109.814 174.235 M68.800 174.553 C 68.800 174.982,69.990 177.200,70.221 177.200 C 70.331 177.200,70.123 176.615,69.759 175.900 C 69.017 174.440,68.800 174.136,68.800 174.553 M71.000 178.800 C 71.341 179.460,71.711 180.000,71.821 180.000 C 71.931 180.000,71.741 179.460,71.400 178.800 C 71.059 178.140,70.689 177.600,70.579 177.600 C 70.469 177.600,70.659 178.140,71.000 178.800 M107.186 179.101 C 106.345 180.787,106.340 180.800,106.547 180.800 C 106.805 180.800,108.042 178.308,107.869 178.136 C 107.795 178.062,107.488 178.496,107.186 179.101 M105.615 182.298 C 104.559 184.558,103.995 186.000,104.165 186.000 C 104.414 186.000,106.442 181.509,106.271 181.337 C 106.193 181.260,105.898 181.692,105.615 182.298 M74.224 183.582 C 75.191 184.989,76.799 186.838,76.788 186.531 C 76.781 186.349,76.106 185.472,75.288 184.582 C 74.470 183.693,73.991 183.243,74.224 183.582 M78.783 188.900 C 79.764 189.945,80.619 190.800,80.683 190.800 C 80.984 190.800,80.666 190.441,78.900 188.783 L 77.000 187.000 78.783 188.900 M82.747 192.600 C 83.600 193.370,84.440 194.000,84.615 194.000 C 85.008 194.000,81.917 191.240,81.499 191.217 C 81.333 191.207,81.895 191.830,82.747 192.600 M86.307 194.290 C 87.026 194.379,88.106 194.377,88.707 194.286 C 89.308 194.195,88.720 194.122,87.400 194.124 C 86.080 194.126,85.588 194.201,86.307 194.290 M90.833 194.544 C 90.925 194.623,92.170 194.786,93.600 194.906 C 95.160 195.037,95.800 194.995,95.200 194.802 C 94.212 194.484,90.511 194.265,90.833 194.544 M97.800 195.598 C 99.435 196.017,100.801 196.063,100.797 195.700 C 100.796 195.535,99.851 195.376,98.697 195.346 C 97.012 195.302,96.836 195.352,97.800 195.598 M309.000 197.285 C 306.016 197.743,303.319 198.482,305.600 198.216 C 336.015 194.669,359.185 205.649,373.352 230.321 C 374.148 231.708,374.800 232.919,374.800 233.011 C 374.800 233.104,375.315 234.309,375.944 235.690 C 377.118 238.266,378.366 241.771,379.118 244.600 C 380.192 248.642,380.318 249.001,380.359 248.123 C 380.382 247.641,379.757 245.121,378.971 242.523 C 370.776 215.430,345.154 196.563,316.954 196.858 C 313.899 196.890,310.320 197.082,309.000 197.285 M380.495 250.400 C 380.495 251.170,380.632 252.340,380.800 253.000 L 381.105 254.200 381.105 252.800 C 381.105 252.030,380.968 250.860,380.800 250.200 L 380.495 249.000 380.495 250.400 M381.310 261.400 C 381.311 267.443,381.347 267.805,381.626 264.655 C 381.799 262.705,381.798 259.645,381.624 257.855 C 381.355 255.080,381.309 255.602,381.310 261.400 M380.671 270.400 C 377.443 294.012,359.850 314.955,337.308 322.019 C 328.837 324.673,326.682 324.995,317.400 324.995 C 308.114 324.995,305.964 324.673,297.479 322.014 C 290.591 319.856,282.155 315.200,275.824 310.064 C 271.652 306.678,268.474 307.438,264.382 312.800 C 259.764 318.851,252.610 325.467,245.800 329.986 C 242.353 332.273,241.199 333.200,242.800 332.396 C 248.679 329.443,258.749 320.594,264.777 313.084 C 269.226 307.540,271.847 307.143,276.709 311.278 C 278.870 313.116,284.812 316.985,287.800 318.500 C 292.585 320.926,295.425 322.057,299.600 323.200 C 300.590 323.471,301.850 323.831,302.400 324.000 C 308.761 325.957,320.787 326.309,328.800 324.773 C 330.983 324.355,331.732 324.172,335.200 323.208 C 348.191 319.596,360.634 310.875,369.460 299.196 C 375.265 291.514,381.804 274.763,381.116 269.337 C 381.012 268.515,380.889 268.810,380.671 270.400 M127.342 311.749 C 117.830 320.592,107.519 326.265,97.200 328.335 C 93.087 329.160,91.778 329.516,92.704 329.559 C 94.393 329.636,102.600 327.607,105.400 326.421 C 105.840 326.234,106.920 325.778,107.800 325.406 C 114.858 322.427,120.352 318.742,127.932 311.900 C 132.254 308.000,134.828 308.526,139.468 314.259 C 147.696 324.424,160.487 333.932,171.400 337.995 C 171.840 338.159,172.650 338.485,173.200 338.720 C 175.990 339.912,181.168 341.372,186.983 342.606 C 196.974 344.726,212.856 344.092,222.000 341.208 C 222.550 341.035,223.810 340.671,224.800 340.401 C 225.790 340.130,226.960 339.766,227.400 339.593 C 227.840 339.419,229.730 338.684,231.600 337.960 C 235.065 336.618,240.677 333.838,241.400 333.105 C 241.944 332.555,241.551 332.721,238.117 334.500 C 233.837 336.717,226.517 339.611,223.100 340.437 C 222.275 340.637,220.835 340.991,219.900 341.225 C 190.407 348.599,156.978 336.862,138.802 312.751 C 135.308 308.117,131.599 307.792,127.342 311.749 "
              stroke="none" fill="#6d6d6d" fill-rule="evenodd"></path>
    </g>
</svg>